<?xml version="1.0" encoding="UTF-8" standalone="no"?>
<svg
   width="63.758343"
   height="27.076933"
   version="1.1"
   id="svg8"
   sodipodi:docname="icon-luxury--no-circle.svg"
   inkscape:version="1.2.1 (9c6d41e410, 2022-07-14)"
   xmlns:inkscape="http://www.inkscape.org/namespaces/inkscape"
   xmlns:sodipodi="http://sodipodi.sourceforge.net/DTD/sodipodi-0.dtd"
   xmlns="http://www.w3.org/2000/svg"
   xmlns:svg="http://www.w3.org/2000/svg">
  <defs
     id="defs12" />
  <sodipodi:namedview
     id="namedview10"
     pagecolor="#505050"
     bordercolor="#eeeeee"
     borderopacity="1"
     inkscape:showpageshadow="0"
     inkscape:pageopacity="0"
     inkscape:pagecheckerboard="0"
     inkscape:deskcolor="#505050"
     showgrid="false"
     inkscape:zoom="5.9"
     inkscape:cx="31.355932"
     inkscape:cy="2.2033898"
     inkscape:window-width="1704"
     inkscape:window-height="994"
     inkscape:window-x="0"
     inkscape:window-y="0"
     inkscape:window-maximized="1"
     inkscape:current-layer="g6" />
  <g
     fill="none"
     fill-rule="evenodd"
     id="g6"
     transform="translate(-0.60381356,-17.088851)">
    <path
       d="m 16.465675,33.276519 c 2.816525,0 5.101959,2.327515 5.101959,5.19918 0,2.870215 -2.285434,5.197729 -5.10341,5.197729 -2.817976,0 -5.101958,-2.327514 -5.101958,-5.197729 0,-2.871665 2.283982,-5.19918 5.101958,-5.19918 z m 31.85967,0 c 2.817976,0 5.10341,2.327515 5.10341,5.19918 0,2.870215 -2.285434,5.197729 -5.10341,5.197729 -2.817976,0 -5.101958,-2.327514 -5.101958,-5.197729 0,-2.871665 2.283982,-5.19918 5.101958,-5.19918 z M 35.058222,18.112849 a 1.8428576,1.8428576 0 0 1 2.639494,0 l 5.390721,5.490845 c 6.448551,-0.166873 14.075369,1.65712 20.262727,5.445861 0.561564,0.343904 0.905467,0.96351 0.905467,1.631002 0,4.361913 -3.084973,8.001194 -7.147966,8.778967 0.576075,-5.366053 -3.566727,-9.986256 -8.78332,-9.986256 -5.290597,0 -9.437752,4.736289 -8.763005,10.142972 H 25.531954 c 1.102812,-2.240451 1.440911,-2.939866 1.940079,-3.933848 l 0.118988,-0.235074 c 0.6109,-1.211642 1.532329,-3.003712 4.183432,-8.198539 2.437795,-0.03337 5.035209,-0.592036 7.613758,-2.03585 L 35.058222,20.80168 a 1.9270196,1.9270196 0 0 1 0,-2.690282 z m -11.14421,1.543937 c 0.99108,-0.290214 2.024241,0.293116 2.310102,1.30306 l 1.086851,3.848235 a 5.0206986,5.0206986 0 0 1 -0.358415,3.642183 l -2.514702,4.926379 -0.313431,0.615253 c -1.552644,-2.74252 -4.440271,-4.518628 -7.660193,-4.518628 -5.216593,0 -9.3593942,4.620203 -8.7818687,9.990609 C 5.023997,38.960356 2.7284059,37.233584 1.4746823,34.710175 a 1.9313728,1.9313728 0 0 1 0.1697751,-1.99667 L 3.0302282,30.822762 1.1075618,28.943627 C 0.01780905,27.877092 0.56195991,26.006664 2.036246,25.706293 l 9.59737,-1.953139 0.188639,-0.03773 c 0.133498,-0.02757 0.210405,-0.04353 0.227817,-0.04498 0.455636,-0.211856 1.552644,-0.857582 1.552644,-2.18531 0,-1.065085 0.859033,-1.925568 1.909607,-1.9009 1.033161,0.02322 1.839955,0.960607 1.822543,2.014083 a 5.9638934,5.9638934 0 0 1 -0.504972,2.337673 32.924754,32.924754 0 0 1 6.820024,1.662925 L 22.634169,22.01042 a 1.9067046,1.9067046 0 0 1 1.279843,-2.353634 z"
       fill="#19b89d"
       fill-rule="nonzero"
       id="path4"
       style="stroke-width:1.45107" />
  </g>
</svg>
