<?xml version="1.0" encoding="UTF-8" standalone="no"?>
<svg
   width="64.086731"
   height="34.945049"
   version="1.1"
   id="svg1024"
   sodipodi:docname="icon-suvs--no-circle.svg"
   inkscape:version="1.2.1 (9c6d41e410, 2022-07-14)"
   xmlns:inkscape="http://www.inkscape.org/namespaces/inkscape"
   xmlns:sodipodi="http://sodipodi.sourceforge.net/DTD/sodipodi-0.dtd"
   xmlns="http://www.w3.org/2000/svg"
   xmlns:svg="http://www.w3.org/2000/svg">
  <defs
     id="defs1028" />
  <sodipodi:namedview
     id="namedview1026"
     pagecolor="#505050"
     bordercolor="#eeeeee"
     borderopacity="1"
     inkscape:showpageshadow="0"
     inkscape:pageopacity="0"
     inkscape:pagecheckerboard="0"
     inkscape:deskcolor="#505050"
     showgrid="false"
     inkscape:zoom="5.9"
     inkscape:cx="32.542373"
     inkscape:cy="12.20339"
     inkscape:window-width="1704"
     inkscape:window-height="994"
     inkscape:window-x="0"
     inkscape:window-y="0"
     inkscape:window-maximized="1"
     inkscape:current-layer="g1022" />
  <g
     fill="none"
     fill-rule="evenodd"
     id="g1022"
     transform="translate(0.08673199,-5.0549523)">
    <path
       d="m 16.30816,26.002819 c 4.216477,0 7.487606,3.74814 6.883395,7.958834 a 6.9787961,6.9787961 0 0 1 -4.281523,5.461039 6.9339861,6.9339861 0 0 1 -7.661066,-1.68399 C 9.5317313,35.917392 9.4637938,33.961653 9.4233205,33.961653 8.8162168,29.735058 12.107584,26.002819 16.30816,26.002819 Z m 31.800646,0 c 4.997037,0 8.380914,5.156041 6.374584,9.748343 a 6.9614503,6.9614503 0 0 1 -7.389314,4.102284 6.9759052,6.9759052 0 0 1 -5.868665,-5.893238 c -0.607103,-4.213586 2.668363,-7.958834 6.883395,-7.958834 z M 26.368728,17.209941 v 2.113297 a 1.8646742,1.8646742 0 0 0 1.954294,1.864674 c 1.00172,-0.0477 1.773608,-0.9121 1.773608,-1.916711 v -2.06126 h 11.997517 l 18.872237,1.034966 a 1.8646742,1.8646742 0 0 1 1.682543,1.325509 c 0.390281,1.293708 0.644686,2.13498 0.813808,2.703054 h -1.513422 c -1.003166,0 -1.866119,0.771889 -1.91382,1.775055 a 1.8646742,1.8646742 0 0 0 1.861783,1.954294 H 63.986 c -0.237059,3.216201 -2.26941,6.060914 -5.203742,7.299694 0.187913,-6.088379 -4.70505,-11.029043 -10.673452,-11.029043 -6.240155,0 -11.219847,5.37431 -10.635871,11.688183 H 26.942585 C 27.564143,27.232926 21.879055,21.63023 15.189355,22.33129 v -5.121349 z m -14.905829,0 v 6.227144 A 10.696581,10.696581 0 0 0 5.6722899,33.951535 5.5998045,5.5998045 0 0 1 0.40783754,28.366185 V 26.002819 H 2.518244 a 1.8646745,1.8646745 0 0 0 0,-3.729349 H 0.40639206 v -4.64434 l 0.004341,-0.419189 z M 33.124919,5.3627549 c 3.830532,0 7.227419,2.3012099 8.649776,5.8614371 l 0.910654,2.282419 a 7.9862983,7.9862983 0 0 1 -0.09395,-0.0058 l -0.03758,-0.0029 -0.04914,-0.0029 -0.0318,-0.0029 a 6.0392316,6.0392316 0 0 0 -0.323788,-0.0087 l -0.141657,-0.0014 h -0.05637 l -0.196586,-0.0014 h -0.07517 l -0.471227,-0.0014 H 29.619621 L 27.186872,5.3642004 Z m -19.704836,0 -1.621833,8.1178371 H 1.4717137 L 3.5965749,6.6723633 A 1.8646742,1.8646742 0 0 1 5.3759656,5.3627549 Z m 9.875546,0 2.432749,8.1163921 H 15.599873 l 1.620388,-8.1163921 z"
       fill="#26b5c0"
       fill-rule="nonzero"
       id="path1020"
       style="stroke-width:1.44548" />
  </g>
</svg>
