<?xml version="1.0" encoding="UTF-8" standalone="no"?>
<svg
   width="63.711998"
   height="29.024761"
   version="1.1"
   id="svg823"
   sodipodi:docname="icon-sedans--no-circle.svg"
   inkscape:version="1.2.1 (9c6d41e410, 2022-07-14)"
   xmlns:inkscape="http://www.inkscape.org/namespaces/inkscape"
   xmlns:sodipodi="http://sodipodi.sourceforge.net/DTD/sodipodi-0.dtd"
   xmlns="http://www.w3.org/2000/svg"
   xmlns:svg="http://www.w3.org/2000/svg">
  <defs
     id="defs827" />
  <sodipodi:namedview
     id="namedview825"
     pagecolor="#505050"
     bordercolor="#eeeeee"
     borderopacity="1"
     inkscape:showpageshadow="0"
     inkscape:pageopacity="0"
     inkscape:pagecheckerboard="0"
     inkscape:deskcolor="#505050"
     showgrid="false"
     inkscape:zoom="5.9"
     inkscape:cx="31.694915"
     inkscape:cy="8.9830508"
     inkscape:window-width="1704"
     inkscape:window-height="994"
     inkscape:window-x="0"
     inkscape:window-y="0"
     inkscape:window-maximized="1"
     inkscape:current-layer="g821" />
  <g
     fill="none"
     fill-rule="evenodd"
     id="g821"
     transform="translate(-0.28800318,-10.975238)">
    <path
       d="m 48.015659,29.985371 c 2.812325,0 5.093176,2.233062 5.093176,4.988909 0,2.755847 -2.280851,4.988909 -5.093176,4.988909 -2.812325,0 -5.091728,-2.233062 -5.091728,-4.988909 0,-2.755847 2.279403,-4.988909 5.091728,-4.988909 z m -31.797234,0 c 2.812326,0 5.093177,2.233062 5.093177,4.988909 0,2.755847 -2.280851,4.988909 -5.093177,4.988909 -2.812325,0 -5.091728,-2.233062 -5.091728,-4.988909 0,-2.755847 2.279403,-4.988909 5.091728,-4.988909 z m 10.061811,-7.020676 v 2.069419 c 0,1.036882 0.883377,1.87247 1.952119,1.823233 a 1.8753663,1.8753663 0 0 0 1.773995,-1.875366 v -2.017286 h 11.956003 l 19.525532,1.901433 c 1.38444,0.134679 2.427115,1.275828 2.427115,2.626961 0,4.18518 -3.078787,7.679589 -7.133633,8.426839 0.57492,-5.151103 -3.559575,-9.586815 -8.765708,-9.586815 -5.279989,0 -9.418828,4.54722 -8.745434,9.735975 H 24.963859 c 0.674843,-5.195995 -3.471237,-9.734527 -8.745434,-9.734527 -5.206132,0 -9.340627,4.434264 -8.7642596,9.586815 C 4.3551045,35.345009 1.7831736,33.152495 0.77815102,30.228662 H 2.4319489 c 1.0586045,0 1.9115703,-0.865999 1.8608847,-1.914467 C 4.2450444,27.332343 3.3819414,26.576404 2.378367,26.576404 H 0.31908453 v -0.363488 c 0,-1.844955 1.54373777,-3.248221 3.33945537,-3.248221 H 26.278788 Z m 6.752767,-11.964692 c 3.830381,0 7.226315,2.253336 8.648407,5.739055 l 1.051364,2.576275 H 29.528458 l -2.544416,-8.31533 h 6.050409 z m -9.941614,0 2.545864,8.313882 H 9.7393607 l 4.8614713,-5.291574 a 9.4159317,9.4159317 0 0 1 6.925097,-3.022308 h 1.566909 z"
       fill="#ffd473"
       fill-rule="nonzero"
       id="path819"
       style="stroke-width:1.44816" />
  </g>
</svg>
