<?xml version="1.0" encoding="iso-8859-1"?>
<!-- Generator: Adobe Illustrator 19.0.0, SVG Export Plug-In . SVG Version: 6.00 Build 0)  -->
<svg version="1.1" id="Layer_1" xmlns="http://www.w3.org/2000/svg" xmlns:xlink="http://www.w3.org/1999/xlink" x="0px" y="0px"
	 viewBox="0 0 512 512" style="enable-background:new 0 0 512 512;" xml:space="preserve">
<path style="fill:#FF9F19;" d="M445.215,478.835H66.848c-23.67,0-45.079-12.118-57.25-32.418
	c-12.182-20.3-12.802-44.883-1.663-65.781L198.889,65.387c12.182-20.17,33.548-32.222,57.142-32.222s44.959,12.052,57.152,32.245
	l190.499,314.433c11.585,21.692,10.966,46.274-1.217,66.575C490.294,466.717,468.885,478.835,445.215,478.835z"/>
<path style="fill:#F28618;" d="M445.215,478.835c23.67,0,45.079-12.118,57.25-32.418c12.182-20.3,12.802-44.883,1.217-66.575
	L313.184,65.409c-12.193-20.193-33.559-32.245-57.152-32.245v445.67H445.215z"/>
<path style="fill:#486475;" d="M256.031,345.294c-9.215,0-16.693-7.477-16.693-16.693V161.675c0-9.215,7.477-16.693,16.693-16.693
	s16.693,7.477,16.693,16.693v166.926C272.724,337.817,265.247,345.294,256.031,345.294z"/>
<path style="fill:#3C4D5C;" d="M256.031,412.061c-9.21,0-16.693-7.498-16.693-16.693s7.483-16.693,16.693-16.693
	c9.21,0,16.693,7.498,16.693,16.693S265.241,412.061,256.031,412.061z"/>
<g>
</g>
<g>
</g>
<g>
</g>
<g>
</g>
<g>
</g>
<g>
</g>
<g>
</g>
<g>
</g>
<g>
</g>
<g>
</g>
<g>
</g>
<g>
</g>
<g>
</g>
<g>
</g>
<g>
</g>
</svg>
